<?xml version="1.0" encoding="utf-8"?>
<!-- Generator: Adobe Illustrator 26.1.0, SVG Export Plug-In . SVG Version: 6.00 Build 0)  -->
<svg version="1.1" id="Layer_1" xmlns="http://www.w3.org/2000/svg" xmlns:xlink="http://www.w3.org/1999/xlink" x="0px" y="0px"
	 viewBox="0 0 138.8 130.3" style="enable-background:new 0 0 138.8 130.3;" xml:space="preserve">
<style type="text/css">
	.st0{fill:#FF4878;}
</style>
<g>
	<path class="st0" d="M19.5,56.9c2.5-2,3.9-3,4.1-3c0.6,0,0.9,1,1,3.1s-0.2,4.4-0.8,7c-0.7,3.8-1.3,8.6-1.7,14.6
		c-0.4,5.9-0.9,9.4-1.3,10.5c-0.5,1.1-0.7,2.2-0.7,3.4c0,1.8-1.1,3.3-3.3,4.7c-2.2,1.4-4.1,1.5-5.7,0.4c-0.9-0.4-1.8-0.5-2.5-0.5
		c-0.8,0-2.1-0.7-3.8-2c-1.7-1.4-2.9-2.7-3.4-4c-0.9-1.5-1.4-3.9-1.4-7s0.6-5.6,1.9-7.6c1.2-1.9,4.9-6.4,11-13.3
		C14.8,60.9,17,58.9,19.5,56.9z M64.9,0.1c0.9,0.2,2.2,0.4,4,0.8c1.9,0.4,3.8,1.6,5.8,3.6c2,2.1,3.8,4.7,5.5,8
		c1.3,2.9,0.9,5.6-1.2,8.1c-1.4,1.4-1.7,13.8-1,37.5c0.5,11.1,0.4,18.6-0.4,22.6c-0.8,7.1-1,10.8-0.5,11.1c0.2,0.1,0.2,2.5,0,7.2
		c0,3.8-0.3,7.2-0.9,10.2c-0.6,3.1-1.4,4.9-2.5,5.6c-0.5,0.6-1,1.9-1.6,3.9c-1.1,3.8-3.2,6.8-6.5,9.2c-3.3,2.4-6.2,2.9-8.6,1.8
		c-0.7-0.6-1.7-1.1-2.9-1.5c-1.2-0.4-2-1.3-2.4-2.7c-0.4-1.4-2.3-3.7-5.7-6.9c-3.5-3.2-5.2-5.2-5.2-6.2c0-0.9-1.4-2.6-4.1-5.1
		c-2.8-2.5-4-4.1-3.8-4.9c0-0.7,0.1-1.1,0.4-1.3c0.3-0.2,0.8-0.2,1.6,0s1.7,0.5,2.9,1s2.8,1.2,4.8,2.1c3.6,1.9,6.3,2.9,7.9,3
		c1.6,0.1,3.2-0.6,4.9-2.1c1.6-1.5,2.6-3.6,3-6.4c0.6-2.6,1.1-11.1,1.6-25.5s0.7-29,0.7-43.7c0-15.3-0.3-23.1-0.9-23.5
		c-0.5-0.2-0.7-0.7-0.6-1.4c0.1-0.7,0.4-1.5,1.1-2.5c0.6-0.9,1.4-1.6,2.2-1.9C63.2,0,64-0.1,64.9,0.1z M107.3,57.2
		c1.9,0.1,5.1,1.1,9.8,3.1c4.6,1.9,7.9,3.7,9.8,5.2c1.6,1.4,3.2,2.4,4.6,3c2,1.2,4.1,3.2,6.2,6.2c0.7,1.1,1.1,2.9,1.1,5.5
		c0.1,2.6-0.3,4.6-1,6.2c-2.2,4.2-3.4,6.9-3.4,8.1c0,0.7-0.5,1.3-1.4,1.8s-1.9,0.5-3,0.2c-0.8-0.2-3.1-2-6.7-5.3s-5.5-5.2-5.5-5.8
		c0-0.2-0.9-1.1-2.8-2.6c-2.7-1.8-6-4.4-9.9-7.9c-2.4-2.4-4.5-4.1-6.5-5.1c-1.8-0.9-3.3-2.3-4.6-4c-1.3-1.7-1.9-3.3-1.9-4.7
		c-0.1-1.1,0.2-1.7,0.9-2c0.7-0.3,2.6-0.7,5.6-1.3C102,57.2,104.8,57.1,107.3,57.2z"/>
</g>
</svg>
